<?xml version="1.0" standalone="no"?><svg xmlns="http://www.w3.org/2000/svg" viewBox="0 0 1440 320"><path fill="#f3f4f5" fill-opacity="1" d="M0,224L14.1,208C28.2,192,56,160,85,176C112.9,192,141,256,169,250.7C197.6,245,226,171,254,144C282.4,117,311,139,339,144C367.1,149,395,139,424,138.7C451.8,139,480,149,508,144C536.5,139,565,117,593,112C621.2,107,649,117,678,138.7C705.9,160,734,192,762,218.7C790.6,245,819,267,847,282.7C875.3,299,904,309,932,282.7C960,256,988,192,1016,149.3C1044.7,107,1073,85,1101,74.7C1129.4,64,1158,64,1186,85.3C1214.1,107,1242,149,1271,186.7C1298.8,224,1327,256,1355,261.3C1383.5,267,1412,245,1426,234.7L1440,224L1440,320L1425.9,320C1411.8,320,1384,320,1355,320C1327.1,320,1299,320,1271,320C1242.4,320,1214,320,1186,320C1157.6,320,1129,320,1101,320C1072.9,320,1045,320,1016,320C988.2,320,960,320,932,320C903.5,320,875,320,847,320C818.8,320,791,320,762,320C734.1,320,706,320,678,320C649.4,320,621,320,593,320C564.7,320,536,320,508,320C480,320,452,320,424,320C395.3,320,367,320,339,320C310.6,320,282,320,254,320C225.9,320,198,320,169,320C141.2,320,113,320,85,320C56.5,320,28,320,14,320L0,320Z"></path></svg>